<mxfile host="app.diagrams.net" agent="Mozilla/5.0 (Macintosh; Intel Mac OS X 10_15_7) AppleWebKit/605.1.15 (KHTML, like Gecko) Version/18.5 Safari/605.1.15" version="28.0.4" pages="2">
  <diagram name="Blue Green" id="fbGeqM2Jq7wtn_gfQt6s">
    <mxGraphModel dx="2050" dy="1064" grid="1" gridSize="10" guides="1" tooltips="1" connect="1" arrows="1" fold="1" page="1" pageScale="1" pageWidth="1100" pageHeight="850" math="0" shadow="0">
      <root>
        <mxCell id="0" />
        <mxCell id="1" parent="0" />
        <mxCell id="I9eTBgIfflXQ0Q4UAd2N-6" style="edgeStyle=orthogonalEdgeStyle;rounded=0;orthogonalLoop=1;jettySize=auto;html=1;" edge="1" parent="1" source="I9eTBgIfflXQ0Q4UAd2N-1" target="I9eTBgIfflXQ0Q4UAd2N-3">
          <mxGeometry relative="1" as="geometry" />
        </mxCell>
        <mxCell id="I9eTBgIfflXQ0Q4UAd2N-1" value="UC Prod" style="rounded=0;whiteSpace=wrap;html=1;" vertex="1" parent="1">
          <mxGeometry x="130" y="80" width="120" height="60" as="geometry" />
        </mxCell>
        <mxCell id="I9eTBgIfflXQ0Q4UAd2N-7" style="edgeStyle=orthogonalEdgeStyle;rounded=0;orthogonalLoop=1;jettySize=auto;html=1;" edge="1" parent="1" source="I9eTBgIfflXQ0Q4UAd2N-2" target="I9eTBgIfflXQ0Q4UAd2N-4">
          <mxGeometry relative="1" as="geometry" />
        </mxCell>
        <mxCell id="I9eTBgIfflXQ0Q4UAd2N-2" value="UC Dev" style="rounded=0;whiteSpace=wrap;html=1;" vertex="1" parent="1">
          <mxGeometry x="460" y="80" width="120" height="60" as="geometry" />
        </mxCell>
        <mxCell id="I9eTBgIfflXQ0Q4UAd2N-3" value="Prod" style="rounded=0;whiteSpace=wrap;html=1;fillColor=#d5e8d4;strokeColor=#82b366;" vertex="1" parent="1">
          <mxGeometry x="130" y="210" width="120" height="60" as="geometry" />
        </mxCell>
        <mxCell id="I9eTBgIfflXQ0Q4UAd2N-4" value="Dev" style="rounded=0;whiteSpace=wrap;html=1;fillColor=#dae8fc;strokeColor=#6c8ebf;" vertex="1" parent="1">
          <mxGeometry x="460" y="210" width="120" height="60" as="geometry" />
        </mxCell>
        <mxCell id="I9eTBgIfflXQ0Q4UAd2N-8" style="rounded=0;orthogonalLoop=1;jettySize=auto;html=1;entryX=0;entryY=0;entryDx=0;entryDy=0;exitX=1;exitY=1;exitDx=0;exitDy=0;" edge="1" source="I9eTBgIfflXQ0Q4UAd2N-9" target="I9eTBgIfflXQ0Q4UAd2N-13" parent="1">
          <mxGeometry relative="1" as="geometry" />
        </mxCell>
        <mxCell id="I9eTBgIfflXQ0Q4UAd2N-9" value="UC Prod" style="rounded=0;whiteSpace=wrap;html=1;" vertex="1" parent="1">
          <mxGeometry x="120" y="390" width="120" height="60" as="geometry" />
        </mxCell>
        <mxCell id="I9eTBgIfflXQ0Q4UAd2N-10" style="rounded=0;orthogonalLoop=1;jettySize=auto;html=1;entryX=0.5;entryY=0;entryDx=0;entryDy=0;" edge="1" source="I9eTBgIfflXQ0Q4UAd2N-11" target="I9eTBgIfflXQ0Q4UAd2N-14" parent="1">
          <mxGeometry relative="1" as="geometry">
            <mxPoint x="660" y="500" as="targetPoint" />
          </mxGeometry>
        </mxCell>
        <mxCell id="I9eTBgIfflXQ0Q4UAd2N-11" value="Dev" style="rounded=0;whiteSpace=wrap;html=1;fillColor=#f8cecc;strokeColor=#b85450;" vertex="1" parent="1">
          <mxGeometry x="510" y="380" width="120" height="60" as="geometry" />
        </mxCell>
        <mxCell id="I9eTBgIfflXQ0Q4UAd2N-12" value="Prod" style="rounded=0;whiteSpace=wrap;html=1;fillColor=#d5e8d4;strokeColor=#82b366;" vertex="1" parent="1">
          <mxGeometry x="120" y="530" width="120" height="60" as="geometry" />
        </mxCell>
        <mxCell id="I9eTBgIfflXQ0Q4UAd2N-13" value="Dev" style="rounded=0;whiteSpace=wrap;html=1;fillColor=#dae8fc;strokeColor=#6c8ebf;" vertex="1" parent="1">
          <mxGeometry x="450" y="530" width="120" height="60" as="geometry" />
        </mxCell>
        <mxCell id="I9eTBgIfflXQ0Q4UAd2N-14" value="null" style="rounded=0;whiteSpace=wrap;html=1;fillColor=#f5f5f5;strokeColor=#666666;fontColor=#333333;" vertex="1" parent="1">
          <mxGeometry x="650" y="530" width="120" height="60" as="geometry" />
        </mxCell>
        <mxCell id="I9eTBgIfflXQ0Q4UAd2N-15" style="rounded=0;orthogonalLoop=1;jettySize=auto;html=1;entryX=0;entryY=0;entryDx=0;entryDy=0;" edge="1" source="I9eTBgIfflXQ0Q4UAd2N-16" target="I9eTBgIfflXQ0Q4UAd2N-20" parent="1">
          <mxGeometry relative="1" as="geometry" />
        </mxCell>
        <mxCell id="I9eTBgIfflXQ0Q4UAd2N-16" value="Prod" style="rounded=0;whiteSpace=wrap;html=1;" vertex="1" parent="1">
          <mxGeometry x="120" y="730" width="120" height="60" as="geometry" />
        </mxCell>
        <mxCell id="I9eTBgIfflXQ0Q4UAd2N-17" style="rounded=0;orthogonalLoop=1;jettySize=auto;html=1;entryX=1;entryY=0;entryDx=0;entryDy=0;" edge="1" source="I9eTBgIfflXQ0Q4UAd2N-18" target="I9eTBgIfflXQ0Q4UAd2N-19" parent="1">
          <mxGeometry relative="1" as="geometry">
            <mxPoint x="660" y="840" as="targetPoint" />
          </mxGeometry>
        </mxCell>
        <mxCell id="I9eTBgIfflXQ0Q4UAd2N-18" value="Dev" style="rounded=0;whiteSpace=wrap;html=1;fillColor=#f8cecc;strokeColor=#b85450;" vertex="1" parent="1">
          <mxGeometry x="450" y="730" width="120" height="60" as="geometry" />
        </mxCell>
        <mxCell id="I9eTBgIfflXQ0Q4UAd2N-19" value="Prod" style="rounded=0;whiteSpace=wrap;html=1;fillColor=#d5e8d4;strokeColor=#82b366;" vertex="1" parent="1">
          <mxGeometry x="120" y="870" width="120" height="60" as="geometry" />
        </mxCell>
        <mxCell id="I9eTBgIfflXQ0Q4UAd2N-20" value="Dev" style="rounded=0;whiteSpace=wrap;html=1;fillColor=#dae8fc;strokeColor=#6c8ebf;" vertex="1" parent="1">
          <mxGeometry x="450" y="870" width="120" height="60" as="geometry" />
        </mxCell>
        <mxCell id="I9eTBgIfflXQ0Q4UAd2N-21" value="null" style="rounded=0;whiteSpace=wrap;html=1;fillColor=#f5f5f5;strokeColor=#666666;fontColor=#333333;" vertex="1" parent="1">
          <mxGeometry x="650" y="870" width="120" height="60" as="geometry" />
        </mxCell>
        <mxCell id="I9eTBgIfflXQ0Q4UAd2N-23" style="rounded=0;orthogonalLoop=1;jettySize=auto;html=1;entryX=0;entryY=0;entryDx=0;entryDy=0;exitX=1;exitY=1;exitDx=0;exitDy=0;" edge="1" source="I9eTBgIfflXQ0Q4UAd2N-24" target="I9eTBgIfflXQ0Q4UAd2N-28" parent="1">
          <mxGeometry relative="1" as="geometry" />
        </mxCell>
        <mxCell id="I9eTBgIfflXQ0Q4UAd2N-24" value="Prod" style="rounded=0;whiteSpace=wrap;html=1;" vertex="1" parent="1">
          <mxGeometry x="1010" y="380" width="120" height="60" as="geometry" />
        </mxCell>
        <mxCell id="I9eTBgIfflXQ0Q4UAd2N-25" style="rounded=0;orthogonalLoop=1;jettySize=auto;html=1;entryX=0;entryY=0;entryDx=0;entryDy=0;" edge="1" source="I9eTBgIfflXQ0Q4UAd2N-26" target="I9eTBgIfflXQ0Q4UAd2N-30" parent="1">
          <mxGeometry relative="1" as="geometry">
            <mxPoint x="1550" y="490" as="targetPoint" />
          </mxGeometry>
        </mxCell>
        <mxCell id="I9eTBgIfflXQ0Q4UAd2N-26" value="Dev" style="rounded=0;whiteSpace=wrap;html=1;fillColor=#f8cecc;strokeColor=#b85450;" vertex="1" parent="1">
          <mxGeometry x="1340" y="380" width="120" height="60" as="geometry" />
        </mxCell>
        <mxCell id="I9eTBgIfflXQ0Q4UAd2N-27" value="Prod" style="rounded=0;whiteSpace=wrap;html=1;fillColor=#d5e8d4;strokeColor=#82b366;" vertex="1" parent="1">
          <mxGeometry x="1010" y="520" width="120" height="60" as="geometry" />
        </mxCell>
        <mxCell id="I9eTBgIfflXQ0Q4UAd2N-31" value="Clone" style="edgeStyle=orthogonalEdgeStyle;rounded=0;orthogonalLoop=1;jettySize=auto;html=1;" edge="1" parent="1" source="I9eTBgIfflXQ0Q4UAd2N-28" target="I9eTBgIfflXQ0Q4UAd2N-30">
          <mxGeometry relative="1" as="geometry">
            <Array as="points">
              <mxPoint x="1400" y="610" />
              <mxPoint x="1400" y="610" />
            </Array>
          </mxGeometry>
        </mxCell>
        <mxCell id="I9eTBgIfflXQ0Q4UAd2N-28" value="Dev" style="rounded=0;whiteSpace=wrap;html=1;fillColor=#d5e8d4;strokeColor=#82b366;" vertex="1" parent="1">
          <mxGeometry x="1340" y="520" width="120" height="60" as="geometry" />
        </mxCell>
        <mxCell id="I9eTBgIfflXQ0Q4UAd2N-29" value="null" style="rounded=0;whiteSpace=wrap;html=1;fillColor=#f5f5f5;strokeColor=#666666;fontColor=#333333;" vertex="1" parent="1">
          <mxGeometry x="1560" y="260" width="120" height="60" as="geometry" />
        </mxCell>
        <mxCell id="I9eTBgIfflXQ0Q4UAd2N-30" value="Dev" style="rounded=0;whiteSpace=wrap;html=1;fillColor=#dae8fc;strokeColor=#6c8ebf;" vertex="1" parent="1">
          <mxGeometry x="1580" y="630" width="120" height="60" as="geometry" />
        </mxCell>
        <mxCell id="I9eTBgIfflXQ0Q4UAd2N-32" value="WS&lt;div&gt;Notebooks, Apps, Workflow&lt;/div&gt;" style="rounded=1;whiteSpace=wrap;html=1;" vertex="1" parent="1">
          <mxGeometry x="460" y="10" width="120" height="60" as="geometry" />
        </mxCell>
        <mxCell id="I9eTBgIfflXQ0Q4UAd2N-33" value="WS&lt;div&gt;Notebooks, Apps, Workflow&lt;/div&gt;" style="rounded=1;whiteSpace=wrap;html=1;" vertex="1" parent="1">
          <mxGeometry x="130" y="10" width="120" height="60" as="geometry" />
        </mxCell>
      </root>
    </mxGraphModel>
  </diagram>
  <diagram id="g1ZiqKzkNFzP-D6NRv2o" name="Product">
    <mxGraphModel dx="1290" dy="780" grid="1" gridSize="10" guides="1" tooltips="1" connect="1" arrows="1" fold="1" page="1" pageScale="1" pageWidth="1100" pageHeight="850" math="0" shadow="0">
      <root>
        <mxCell id="0" />
        <mxCell id="1" parent="0" />
        <mxCell id="Qg3hUVjr1YBHY3itmNmm-4" value="Product" style="rounded=0;whiteSpace=wrap;html=1;align=center;verticalAlign=top;fillColor=#f5f5f5;fontColor=#333333;strokeColor=#666666;" vertex="1" parent="1">
          <mxGeometry x="110" y="200" width="140" height="230" as="geometry" />
        </mxCell>
        <mxCell id="Qg3hUVjr1YBHY3itmNmm-1" value="Prod Workspace&lt;div&gt;(505)&lt;/div&gt;" style="rounded=1;whiteSpace=wrap;html=1;fillColor=#dae8fc;strokeColor=#6c8ebf;" vertex="1" parent="1">
          <mxGeometry x="60" y="60" width="210" height="70" as="geometry" />
        </mxCell>
        <mxCell id="Qg3hUVjr1YBHY3itmNmm-2" value="Dev Workspace&lt;div&gt;(808)&lt;/div&gt;" style="rounded=0;whiteSpace=wrap;html=1;fillColor=#f5f5f5;fontColor=#333333;strokeColor=#666666;" vertex="1" parent="1">
          <mxGeometry x="520" y="120" width="120" height="60" as="geometry" />
        </mxCell>
        <mxCell id="Qg3hUVjr1YBHY3itmNmm-3" value="Notebook" style="rounded=0;whiteSpace=wrap;html=1;" vertex="1" parent="1">
          <mxGeometry x="120" y="280" width="120" height="30" as="geometry" />
        </mxCell>
        <mxCell id="Qg3hUVjr1YBHY3itmNmm-5" value="Query" style="rounded=0;whiteSpace=wrap;html=1;" vertex="1" parent="1">
          <mxGeometry x="120" y="320" width="120" height="30" as="geometry" />
        </mxCell>
        <mxCell id="Qg3hUVjr1YBHY3itmNmm-6" value="Dashboard" style="rounded=0;whiteSpace=wrap;html=1;" vertex="1" parent="1">
          <mxGeometry x="120" y="240" width="120" height="30" as="geometry" />
        </mxCell>
        <mxCell id="Qg3hUVjr1YBHY3itmNmm-7" value="ETL Pipeline" style="rounded=0;whiteSpace=wrap;html=1;" vertex="1" parent="1">
          <mxGeometry x="120" y="360" width="120" height="30" as="geometry" />
        </mxCell>
      </root>
    </mxGraphModel>
  </diagram>
</mxfile>
